<?xml version="1.0" standalone="no"?>
<!DOCTYPE svg PUBLIC "-//W3C//DTD SVG 20010904//EN"
 "http://www.w3.org/TR/2001/REC-SVG-20010904/DTD/svg10.dtd">
<svg version="1.0" xmlns="http://www.w3.org/2000/svg"
 width="16.000000pt" height="16.000000pt" viewBox="0 0 16.000000 16.000000"
 preserveAspectRatio="xMidYMid meet">
<metadata>
Created by potrace 1.11, written by Peter Selinger 2001-2013
</metadata>
<g transform="translate(0.000000,16.000000) scale(0.005333,-0.005333)"
fill="#000000" stroke="none">
<path d="M1584 2950 c-30 -19 -84 -89 -84 -109 0 -4 -10 -30 -22 -57 -36 -82
-52 -187 -52 -344 -1 -81 5 -171 12 -205 17 -79 76 -197 128 -253 40 -45 42
-46 112 -50 54 -3 76 0 93 12 13 9 29 16 36 16 18 0 100 57 169 117 90 79 108
122 112 263 3 111 -4 163 -38 285 -6 22 -15 56 -20 76 -12 45 -53 119 -82 146
-34 31 -128 93 -142 93 -7 0 -21 7 -32 15 -30 23 -151 20 -190 -5z"/>
<path d="M675 2681 c-118 -27 -150 -61 -179 -192 -15 -64 -16 -85 -6 -135 7
-32 16 -81 20 -109 25 -148 127 -372 219 -476 73 -83 100 -93 228 -85 97 5
105 8 156 43 105 72 137 167 117 355 -5 55 -14 107 -19 117 -6 9 -20 46 -32
82 -33 94 -63 143 -156 251 -97 113 -125 135 -196 154 -61 16 -62 16 -152 -5z"/>
<path d="M2625 2500 c-11 -4 -39 -13 -62 -19 -56 -15 -150 -80 -197 -136 -55
-66 -113 -176 -125 -238 -6 -28 -16 -74 -22 -102 -17 -71 -16 -166 4 -265 9
-47 17 -86 17 -87 0 0 16 -21 36 -45 37 -44 86 -77 115 -78 9 0 22 -6 28 -14
21 -25 155 -15 223 16 116 53 159 105 214 253 28 78 29 84 29 275 0 211 -1
214 -64 340 -42 83 -129 128 -196 100z"/>
<path d="M194 1721 c-73 -44 -164 -194 -164 -270 0 -90 143 -319 276 -440 63
-58 173 -115 242 -126 79 -13 119 2 181 64 116 116 168 208 155 270 -13 60
-40 128 -61 154 -13 16 -23 34 -23 42 0 41 -295 295 -343 295 -8 0 -31 7 -50
15 -53 22 -174 20 -213 -4z"/>
<path d="M1550 1640 c-8 -5 -26 -10 -39 -10 -13 0 -58 -12 -99 -27 -61 -23
-87 -40 -142 -93 -64 -62 -69 -70 -99 -165 -18 -55 -36 -125 -41 -155 -8 -54
-61 -184 -81 -195 -30 -19 -153 -245 -169 -312 -47 -194 -32 -334 50 -478 67
-119 114 -159 209 -180 17 -4 31 -11 31 -16 0 -13 98 -11 102 2 2 5 28 14 58
19 89 15 160 33 160 42 0 4 7 8 16 8 24 0 120 57 187 111 42 34 81 55 131 70
39 12 76 25 81 29 17 13 101 20 325 28 130 5 231 13 255 21 178 59 265 164
265 321 0 75 -30 185 -72 260 -13 24 -31 58 -41 77 -10 19 -59 76 -110 127
-77 76 -108 99 -187 139 -52 26 -103 47 -112 47 -32 0 -151 68 -183 104 -5 6
-42 39 -81 73 -84 73 -185 137 -234 147 -62 13 -165 17 -180 6z"/>
</g>
</svg>
