<?xml version="1.0" standalone="no"?>
<!DOCTYPE svg PUBLIC "-//W3C//DTD SVG 20010904//EN"
 "http://www.w3.org/TR/2001/REC-SVG-20010904/DTD/svg10.dtd">
<svg version="1.0" xmlns="http://www.w3.org/2000/svg"
 width="16.000000pt" height="16.000000pt" viewBox="0 0 16.000000 16.000000"
 preserveAspectRatio="xMidYMid meet">
<metadata>
Created by potrace 1.11, written by Peter Selinger 2001-2013
</metadata>
<g transform="translate(0.000000,16.000000) scale(0.020000,-0.020000)"
fill="#000000" stroke="none">
<path d="M45 778 c-48 -28 -59 -78 -25 -120 57 -73 171 -6 135 79 -21 49 -67
66 -110 41z"/>
<path d="M355 723 c-11 -2 -48 -18 -82 -35 -229 -111 -270 -427 -78 -596 139
-122 351 -119 489 8 26 24 59 70 78 108 30 61 33 76 33 157 0 82 -3 97 -33
157 -61 124 -177 199 -312 203 -41 1 -84 0 -95 -2z"/>
</g>
</svg>
